# xmcd
#
# Track frame offsets:
#	150
#	15671
#	33541
#	49568
#	68489
#	89476
#	106583
#	125276
#	141753
#
# Disc length: 2119 seconds
#
# Revision: 4
# Processed by: cddbd v1.5.2PL0 Copyright (c) Steve Scherf et al.
# Submitted via: EasyCDDAExtractor 15.3.0.1
#
DISCID=6a084509
DTITLE=Olga Tañon - Ni Una Lagrima Mas
DYEAR=2010
DGENRE=Latin
TTITLE0=Sola
TTITLE1=You Need To Know
TTITLE2=Envenenada
TTITLE3=La Receta
TTITLE4=Ni Una Lagrima Mas (Featuring Samo)
TTITLE5=Arco Iris De Colores
TTITLE6=Muero Por Ti
TTITLE7=Dame Tu Mano
TTITLE8=Ay, Ay, Ay (Bonus Track)
EXTD=
EXTT0=
EXTT1=
EXTT2=
EXTT3=
EXTT4=
EXTT5=
EXTT6=
EXTT7=
EXTT8=
PLAYORDER=
